<?xml version="1.0" encoding="iso-8859-1"?>
<!-- Generator: Adobe Illustrator 15.1.0, SVG Export Plug-In . SVG Version: 6.00 Build 0)  -->
<!DOCTYPE svg PUBLIC "-//W3C//DTD SVG 1.1//EN" "http://www.w3.org/Graphics/SVG/1.1/DTD/svg11.dtd">
<svg version="1.1" id="Layer_1" xmlns="http://www.w3.org/2000/svg" xmlns:xlink="http://www.w3.org/1999/xlink" x="0px" y="0px"
	 width="300px" height="100px" viewBox="0 0 300 100" style="enable-background:new 0 0 300 100;" xml:space="preserve">
<g id="ARC_3_">
	<g>
		<g>
			<polygon style="fill:#674299;" points="280.769,11.872 268.878,23.763 197.547,23.763 197.547,11.872 			"/>
			<polygon style="fill:#674299;" points="257.01,35.655 245.117,47.549 197.547,47.549 197.547,35.655 			"/>
			<path style="fill:#674299;" d="M233.224,59.441L221.33,71.311h-27.664c1.635-3.778,2.756-7.786,3.369-11.869H233.224z"/>
			<path style="fill:#674299;" d="M185.653,11.872v40.602c0,19.704-15.95,35.654-35.651,35.654c-19.705,0-35.68-15.95-35.68-35.654
				v-4.925H54.883L42.99,35.655h83.225v16.818c0,13.119,10.643,23.761,23.787,23.761c13.116,0,23.783-10.642,23.783-23.761V23.763
				H31.098L19.231,11.872H185.653z"/>
			<path style="fill:#674299;" d="M106.334,71.311H78.67L66.777,59.441h36.188C103.553,63.524,104.701,67.532,106.334,71.311z"/>
		</g>
	</g>
</g>
</svg>
